<?xml version="1.0" encoding="UTF-8" standalone="no"?>
<svg
   height="16px"
   viewBox="0 0 16 16"
   width="16px"
   version="1.1"
   id="svg10"
   sodipodi:docname="org.Decodetalkers.haruhishot-symbolic.svg"
   inkscape:version="1.2.2 (b0a8486541, 2022-12-01)"
   xmlns:inkscape="http://www.inkscape.org/namespaces/inkscape"
   xmlns:sodipodi="http://sodipodi.sourceforge.net/DTD/sodipodi-0.dtd"
   xmlns="http://www.w3.org/2000/svg"
   xmlns:svg="http://www.w3.org/2000/svg">
  <defs
     id="defs14" />
  <sodipodi:namedview
     id="namedview12"
     pagecolor="#ffffff"
     bordercolor="#000000"
     borderopacity="0.25"
     inkscape:showpageshadow="2"
     inkscape:pageopacity="0.0"
     inkscape:pagecheckerboard="0"
     inkscape:deskcolor="#d1d1d1"
     showgrid="false"
     inkscape:zoom="53.5625"
     inkscape:cx="5.8716453"
     inkscape:cy="8"
     inkscape:window-width="2534"
     inkscape:window-height="1054"
     inkscape:window-x="0"
     inkscape:window-y="0"
     inkscape:window-maximized="1"
     inkscape:current-layer="svg10" />
  <path
     d="m 8.660156 5.035156 c 0 -1.085937 -0.886718 -1.96875 -1.980468 -1.96875 c -0.71875 0 -1.347657 0.382813 -1.695313 0.953125 c -0.347656 -0.570312 -0.976563 -0.953125 -1.695313 -0.953125 c -1.09375 0 -1.980468 0.882813 -1.980468 1.96875 c 0 0.570313 0.242187 1.078125 0.625 1.4375 l 3.003906 2.886719 l 3.097656 -2.886719 c 0.382813 -0.359375 0.625 -0.867187 0.625 -1.4375"
     id="path2" />
  <path
     d="m 4.394531 8.226562 c 0 -0.675781 0 -1.011718 0.148438 -1.257812 c 0.089843 -0.152344 0.214843 -0.277344 0.363281 -0.363281 c 0.246094 -0.148438 0.585938 -0.148438 1.257812 -0.148438 h 0.335938 c 0.042969 0 0.0625 0 0.082031 -0.003906 c 0.347657 -0.011719 0.664063 -0.195313 0.847657 -0.488281 l 0.050781 -0.066406 c 0.1875 -0.253907 0.484375 -0.410157 0.800781 -0.421876 h 1.675781 c 0.316407 0.011719 0.613281 0.167969 0.800781 0.421876 c 0.011719 0.015624 0.023438 0.03125 0.046876 0.066406 l 0.050781 0.070312 c 0.207031 0.277344 0.535156 0.433594 0.882812 0.421875 h 0.335938 c 0.671875 0 1.007812 0 1.257812 0.148438 c 0.148438 0.089843 0.273438 0.210937 0.363281 0.363281 c 0.148438 0.246094 0.148438 0.582031 0.148438 1.257812 v 2.5 c 0 0.988282 0 1.484376 -0.308594 1.792969 c -0.304687 0.304688 -0.800781 0.304688 -1.792968 0.304688 h -5.25 c -0.988282 0 -1.484376 0 -1.789063 -0.304688 c -0.308594 -0.308593 -0.308594 -0.804687 -0.308594 -1.792969 z m 0 0"
     fill="#ffffff"
     stroke="#000000"
     stroke-linecap="round"
     stroke-width="1.05002"
     id="path4" />
  <path
     d="m 10.769531 9.449219 c 0 0.398437 -0.105469 0.726562 -0.28125 0.980469 c -0.183593 0.265624 -0.441406 0.449218 -0.730469 0.558593 c -0.175781 0.066407 -0.359374 0.105469 -0.546874 0.113281 c -0.855469 0.042969 -1.746094 -0.507812 -1.742188 -1.652343 c 0.003906 -1.875 2.40625 -2.148438 3.109375 -0.816407 c 0.121094 0.226563 0.191406 0.5 0.191406 0.816407 z m 0 0"
     fill="#ffffff"
     stroke="#000000"
     stroke-linecap="round"
     stroke-width="1.05002"
     id="path6" />
</svg>
